<?xml version="1.0" standalone="no"?>
<!DOCTYPE svg PUBLIC "-//W3C//DTD SVG 20010904//EN"
 "http://www.w3.org/TR/2001/REC-SVG-20010904/DTD/svg10.dtd">
<svg version="1.0" xmlns="http://www.w3.org/2000/svg"
 width="257.000000pt" height="200.000000pt" viewBox="0 0 257.000000 200.000000"
 preserveAspectRatio="xMidYMid meet">

<g transform="translate(0.000000,200.000000) scale(0.100000,-0.100000)"
fill="#000000" stroke="none">
<path d="M380 1755 c0 -35 -1 -38 -16 -60 -10 -14 -14 -53 -14 -134 l0 -115
-36 -37 c-23 -24 -34 -43 -31 -53 10 -25 37 -19 37 8 0 13 7 29 15 36 13 11
15 -18 15 -254 l0 -266 23 0 c22 0 23 -3 24 -100 1 -58 -2 -100 -7 -100 -6 0
-10 -8 -11 -17 0 -11 -3 -13 -6 -5 -11 27 -33 12 -33 -23 0 -35 12 -46 26 -24
5 8 9 7 15 -3 5 -10 2 -31 -9 -57 l-17 -41 -107 0 -108 0 0 -25 c0 -20 5 -25
25 -25 l25 0 0 -135 0 -135 -25 0 c-20 0 -25 -5 -25 -25 l0 -25 1080 0 1080 0
0 25 c0 20 -5 25 -25 25 l-25 0 0 135 0 135 25 0 c20 0 25 5 25 25 0 22 -4 25
-34 25 -19 0 -36 5 -38 12 -3 7 -30 10 -81 9 -71 -2 -95 7 -67 24 6 3 10 13
10 21 0 10 -12 14 -40 14 -28 0 -40 -4 -40 -14 0 -8 5 -18 10 -21 24 -15 5
-22 -67 -23 -45 0 -79 -5 -81 -11 -2 -6 -14 -11 -27 -11 -21 0 -24 6 -32 58
-4 31 -8 101 -8 154 0 83 3 101 21 125 19 26 27 28 98 31 59 2 80 -1 92 -13
21 -21 61 -19 74 4 5 11 10 42 10 70 0 44 4 55 30 78 36 32 37 36 4 66 l-25
24 25 17 c26 16 26 17 26 162 0 86 4 143 9 139 5 -3 21 0 35 6 21 10 29 9 43
-4 23 -20 100 -31 152 -22 l41 7 0 53 0 53 -46 7 c-56 8 -123 -2 -146 -22 -11
-10 -24 -13 -35 -8 -29 12 -63 14 -69 4 -3 -5 -5 -88 -4 -183 1 -151 -1 -174
-15 -180 -9 -3 -19 -6 -21 -6 -2 0 -4 63 -4 140 0 127 -2 142 -20 160 -11 11
-24 20 -28 20 -17 0 -42 -26 -45 -47 -2 -12 -6 -26 -10 -29 -4 -4 -7 60 -7
143 0 133 -2 152 -18 166 -23 21 -36 21 -56 1 -13 -12 -16 -43 -18 -152 -1
-75 -3 -118 -5 -95 -7 77 -53 84 -53 7 0 -36 -3 -44 -18 -44 -11 0 -25 14 -35
35 -20 41 -81 84 -145 100 l-47 12 0 67 c0 61 -2 66 -22 66 -12 0 -24 6 -27
13 -5 10 -7 10 -12 0 -3 -7 -15 -13 -27 -13 -21 0 -22 -4 -19 -65 4 -74 20
-64 -138 -90 -52 -8 -155 -26 -228 -40 -170 -32 -370 -47 -434 -34 -56 12 -93
49 -138 138 -38 77 -54 91 -100 91 -42 0 -50 10 -50 66 0 19 -4 34 -10 34 -5
0 -10 -11 -10 -25z m-74 -402 c-10 -10 -19 5 -10 18 6 11 8 11 12 0 2 -7 1
-15 -2 -18z m1700 -209 c-3 -97 -10 -164 -18 -182 -13 -26 -17 -27 -107 -32
l-94 -5 6 130 c9 173 16 225 33 225 10 0 14 -14 14 -44 0 -47 8 -60 34 -50 10
4 16 22 19 52 2 26 4 -15 5 -90 2 -109 5 -140 18 -152 20 -20 33 -20 56 1 16
14 18 33 18 165 0 98 3 147 10 143 7 -4 9 -63 6 -161z m-930 61 c95 -18 215
-57 269 -88 24 -14 50 -40 65 -67 23 -41 25 -55 24 -160 -1 -97 -5 -128 -29
-200 -15 -47 -38 -107 -52 -133 l-24 -48 -454 3 c-249 2 -456 6 -460 10 -9 9
23 68 41 75 16 6 20 68 4 78 -6 3 -10 31 -10 61 0 47 3 54 18 52 11 -2 17 3
17 17 0 14 -6 19 -17 17 -14 -2 -18 4 -18 27 0 26 4 30 32 33 l33 3 31 115
c47 180 65 203 170 220 76 12 260 4 360 -15z"/>
</g>
</svg>
